<svg xmlns="http://www.w3.org/2000/svg" xmlns:xlink="http://www.w3.org/1999/xlink" width="251" height="251" viewBox="0 0 251 251" fill="none">
<rect x="0" y="0" width="0" height="0" fill="rgba(249, 249, 249, 1)" />
<g  clip-path="url(#clip-path-0_1)">
<path     fill="#FFFFFF"  d="M0 232L0 19C0 8.50659 8.50659 0 19 0L232 0C242.493 0 251 8.50659 251 19L251 232C251 242.493 242.493 251 232 251L19 251C8.50659 251 0 242.493 0 232Z">
</path>
<rect x="0" y="0" width="251" height="251"   fill="#0F3F91" >
</rect>
<g filter="url(#filter_0_20)">
<path d="M0 250.5L251 250.5L251 65.5C251 65.5 178.606 -1.5 125.5 131.5C72.3942 264.5 0 194 0 194L0 250.5Z"   fill="#185ABC" >
</path>
</g>
<g filter="url(#filter_1_3)">
<path d="M251 88C251 88 177.5 9.50002 141.5 178C132.217 221.451 118.977 248.976 104.438 265.9L251 251L251 88ZM10 275.5C10 275.5 62.5975 314.605 104.438 265.9L10 275.5Z" fill-rule="evenodd"  fill="#2A7CD2" >
</path>
</g>
<g filter="url(#filter_0_21)">
<path d="M169 226.237C167.651 257.787 164.932 282.507 161.283 301.737L251.461 249.237L251.461 115.737C251.461 115.737 178 15.7374 169 226.237ZM90 343.237C90 343.237 140.589 410.81 161.283 301.737L90 343.237Z" fill-rule="evenodd"  fill="#41A5EE" >
</path>
</g>
<g filter="url(#filter_eny8t6df3j2Kzse0K-f8A)">
<path     fill="#FFFFFF"  d="M37 34L37 127.982C37 130.198 38.8019 131.992 41.0181 131.982L58.3972 131.903C60.5992 131.893 62.3791 130.105 62.3791 127.903L62.3791 103.989C62.3791 101.78 64.17 99.9888 66.3791 99.9888L73.7881 99.9888C81.1573 99.9888 87.1645 99.3577 91.8328 98.0382C104.837 94.3896 110.343 83.7881 112.09 79.4511C114.069 74.7469 115 69.733 115 64.6502C115 59.341 113.98 54.2697 111.857 49.3903C111.137 47.7401 110.294 46.1891 109.296 44.6862C108.297 43.1831 107.166 41.7516 105.919 40.4409C104.673 39.1304 103.302 37.963 101.845 36.8841C100.387 35.8053 98.9289 34.8304 97.3045 34.0157C93.5907 32.2259 88.6197 30.8146 82.0537 30.3442C78.3723 30.0738 74.6856 30 70.994 30L41 30C38.7909 30 37 31.7909 37 34ZM66.3791 52.8324L72.0418 52.8324C78.2701 52.8324 82.7988 53.7962 85.5463 55.7008C88.2937 57.5939 89.6209 60.6918 89.6209 64.9944C89.6209 73.0029 84.091 77.0416 73.0896 77.0416L66.3791 77.0416C64.17 77.0416 62.3791 75.2508 62.3791 73.0416L62.3791 56.8324C62.3791 54.6233 64.17 52.8324 66.3791 52.8324Z">
</path>
</g>
</g>
<defs>
<clipPath id="clip-path-0_1">
<path d="M0 232L0 19C0 8.50659 8.50659 0 19 0L232 0C242.493 0 251 8.50659 251 19L251 232C251 242.493 242.493 251 232 251L19 251C8.50659 251 0 242.493 0 232Z" fill="white"/>
</clipPath>
<filter id="filter_0_20" x="-20" y="-19.5" width="291" height="306.00001525878906" filterUnits="userSpaceOnUse" color-interpolation-filters="sRGB">
<feFlood flood-opacity="0" result="feFloodId_0_20"/>
<feColorMatrix in="SourceAlpha" type="matrix" values="0 0 0 0 0 0 0 0 0 0 0 0 0 0 0 0 0 0 127 0" result="hardAlpha_0_20"/>
<feOffset dx="0" dy="2"/>
<feGaussianBlur stdDeviation="10"/>
<feComposite in2="hardAlpha_0_20" operator="out"/>
<feColorMatrix type="matrix" values="0 0 0 0 0 0 0 0 0 0 0 0 0 0 0 0 0 0 0.25 0"/>
<feBlend mode="normal" in2="feFloodId_0_20" result="dropShadow_1_0_20"/>
<feBlend mode="normal" in="SourceGraphic" in2="dropShadow_1_0_20" result="shape_0_20"/>
</filter>
<filter id="filter_1_3" x="-10" y="-8.5" width="281" height="345.1046142578125" filterUnits="userSpaceOnUse" color-interpolation-filters="sRGB">
<feFlood flood-opacity="0" result="feFloodId_1_3"/>
<feColorMatrix in="SourceAlpha" type="matrix" values="0 0 0 0 0 0 0 0 0 0 0 0 0 0 0 0 0 0 127 0" result="hardAlpha_1_3"/>
<feOffset dx="0" dy="2"/>
<feGaussianBlur stdDeviation="10"/>
<feComposite in2="hardAlpha_1_3" operator="out"/>
<feColorMatrix type="matrix" values="0 0 0 0 0 0 0 0 0 0 0 0 0 0 0 0 0 0 0.25 0"/>
<feBlend mode="normal" in2="feFloodId_1_3" result="dropShadow_1_1_3"/>
<feBlend mode="normal" in="SourceGraphic" in2="dropShadow_1_1_3" result="shape_1_3"/>
</filter>
<filter id="filter_0_21" x="70" y="-2.2625732421875" width="201.4610137939453" height="435.0730285644531" filterUnits="userSpaceOnUse" color-interpolation-filters="sRGB">
<feFlood flood-opacity="0" result="feFloodId_0_21"/>
<feColorMatrix in="SourceAlpha" type="matrix" values="0 0 0 0 0 0 0 0 0 0 0 0 0 0 0 0 0 0 127 0" result="hardAlpha_0_21"/>
<feOffset dx="0" dy="2"/>
<feGaussianBlur stdDeviation="10"/>
<feComposite in2="hardAlpha_0_21" operator="out"/>
<feColorMatrix type="matrix" values="0 0 0 0 0 0 0 0 0 0 0 0 0 0 0 0 0 0 0.25 0"/>
<feBlend mode="normal" in2="feFloodId_0_21" result="dropShadow_1_0_21"/>
<feBlend mode="normal" in="SourceGraphic" in2="dropShadow_1_0_21" result="shape_0_21"/>
</filter>
<filter id="filter_eny8t6df3j2Kzse0K-f8A" x="17" y="12" width="118" height="141.9918212890625" filterUnits="userSpaceOnUse" color-interpolation-filters="sRGB">
<feFlood flood-opacity="0" result="feFloodId_eny8t6df3j2Kzse0K-f8A"/>
<feColorMatrix in="SourceAlpha" type="matrix" values="0 0 0 0 0 0 0 0 0 0 0 0 0 0 0 0 0 0 127 0" result="hardAlpha_eny8t6df3j2Kzse0K-f8A"/>
<feOffset dx="0" dy="2"/>
<feGaussianBlur stdDeviation="10"/>
<feComposite in2="hardAlpha_eny8t6df3j2Kzse0K-f8A" operator="out"/>
<feColorMatrix type="matrix" values="0 0 0 0 0 0 0 0 0 0 0 0 0 0 0 0 0 0 0.25 0"/>
<feBlend mode="normal" in2="feFloodId_eny8t6df3j2Kzse0K-f8A" result="dropShadow_1_eny8t6df3j2Kzse0K-f8A"/>
<feBlend mode="normal" in="SourceGraphic" in2="dropShadow_1_eny8t6df3j2Kzse0K-f8A" result="shape_eny8t6df3j2Kzse0K-f8A"/>
</filter>
</defs>
</svg>
