<svg xmlns="http://www.w3.org/2000/svg" viewBox="0 0 36 36">
	<path d="M6.5 10.74 V9.5 A3 3 0 0 1 9.5 6.5 H26.5 A3 3 0 0 1 29.5 9.5 V10.74 C29.5 11.292 29.948 11.74 30.5 11.74 C31.052 11.74 31.5 11.292 31.5 10.74 V9.5 A5 5 0 0 0 26.5 4.5 H9.5 A5 5 0 0 0 4.5 9.5 V10.74 C4.5 11.292 4.948 11.74 5.5 11.74 C6.052 11.74 6.5 11.292 6.5 10.74 Z M29.5 25.26 V26.5 A3 3 0 0 1 26.5 29.5 H9.5 A3 3 0 0 1 6.5 26.5 V25.26 C6.5 24.708 6.052 24.26 5.5 24.26 C4.948 24.26 4.5 24.708 4.5 25.26 V26.5 A5 5 0 0 0 9.5 31.5 H26.5 A5 5 0 0 0 31.5 26.5 V25.26 C31.5 24.708 31.052 24.26 30.5 24.26 C29.948 24.26 29.5 24.708 29.5 25.26 Z M18 16.586 L25.793 8.793 A1 1 0 0 1 27.207 10.207 L19.414 18 L27.207 25.793 A1 1 0 0 1 25.793 27.207 L18 19.414 L10.207 27.207 A1 1 0 0 1 8.793 25.793 L16.586 18 L8.793 10.207 A1 1 0 0 1 10.207 8.793 Z"/>
</svg>
